<svg overflow="hidden" xmlns:xlink="http://www.w3.org/1999/xlink" xmlns="http://www.w3.org/2000/svg" viewBox="437.4173228346457 127.872 302.3622047244094 283.68" style="max-height: 500px" width="302.3622047244094" height="283.68"><g><rect fill="#FFFFFF" height="720" width="1280" y="0" x="0"/><path fill-rule="evenodd" fill="none" stroke-miterlimit="8" stroke-width="8" stroke="#000000" d="M480 148 480 389.908"/><path fill-rule="evenodd" fill="none" stroke-miterlimit="8" stroke-width="8" stroke="#000000" d="M467 369 714.2 369"/><path fill-rule="evenodd" fill="none" stroke-miterlimit="8" stroke-width="2" stroke="#000000" d="M522 148 522 389.908"/><path fill-rule="evenodd" fill="none" stroke-miterlimit="8" stroke-width="2" stroke="#000000" d="M563 148 563 389.908"/><path fill-rule="evenodd" fill="none" stroke-miterlimit="8" stroke-width="2" stroke="#000000" d="M604 148 604 389.908"/><path fill-rule="evenodd" fill="none" stroke-miterlimit="8" stroke-width="2" stroke="#000000" d="M645 148 645 389.908"/><path fill-rule="evenodd" fill="none" stroke-miterlimit="8" stroke-width="2" stroke="#000000" d="M683 148 683 389.908"/><path fill-rule="evenodd" fill="none" stroke-miterlimit="8" stroke-width="2" stroke="#000000" d="M467 329 714.2 329"/><path fill-rule="evenodd" fill="none" stroke-miterlimit="8" stroke-width="2" stroke="#000000" d="M467 289 714.2 289"/><path fill-rule="evenodd" fill="none" stroke-miterlimit="8" stroke-width="2" stroke="#000000" d="M467 249 714.2 249"/><path fill-rule="evenodd" fill="none" stroke-miterlimit="8" stroke-width="2" stroke="#000000" d="M467 209 714.2 209"/><path fill-rule="evenodd" fill="none" stroke-miterlimit="8" stroke-width="2" stroke="#000000" d="M467 168 714.2 168"/><path transform="matrix(1 0 0 -1 467 312.894)" fill-rule="evenodd" fill="none" stroke-miterlimit="8" stroke-width="8" stroke="#FF0000" d="M0 0 201.067 172.894"/></g></svg>