<svg overflow="hidden" xmlns:xlink="http://www.w3.org/1999/xlink" xmlns="http://www.w3.org/2000/svg" viewBox="415.82002249718784 144 237.57030371203598 254.88" style="max-height: 500px" width="237.57030371203598" height="254.88"><g><rect fill="#FFFFFF" height="720" width="1280" y="0" x="0"/><path fill-rule="evenodd" fill="none" stroke-miterlimit="8" stroke-width="8" stroke="#000000" d="M480 148 480 389.908"/><path fill-rule="evenodd" fill="none" stroke-miterlimit="8" stroke-width="8" stroke="#000000" d="M480 151 559.389 207.08"/><path fill-rule="evenodd" fill="none" stroke-miterlimit="8" stroke-width="8" stroke="#000000" d="M480 314 517.082 334.708"/><path transform="matrix(1 0 0 -1 568 331.514)" fill-rule="evenodd" fill="none" stroke-miterlimit="8" stroke-width="8" stroke="#000000" d="M0 0 37.4451 16.5137"/><path transform="matrix(1 0 0 -1 480 311.909)" fill-rule="evenodd" fill="none" stroke-miterlimit="8" stroke-width="8" stroke="#000000" d="M0 0 42.4172 3.90908"/><path fill-rule="evenodd" fill="none" stroke-miterlimit="8" stroke-width="8" stroke="#000000" d="M564 310 608.544 315.246"/><path fill-rule="evenodd" fill="none" stroke-miterlimit="8" stroke-width="8" stroke="#000000" d="M580 242 603.983 301.628"/><path fill-rule="evenodd" stroke-miterlimit="8" stroke-width="8" stroke="#000000" d="M563 221.5C563 213.492 569.044 207 576.5 207 583.956 207 590 213.492 590 221.5 590 229.508 583.956 236 576.5 236 569.044 236 563 229.508 563 221.5Z"/><path fill-rule="evenodd" stroke-miterlimit="8" stroke-width="8" stroke="#000000" d="M526 339.5C526 330.387 533.611 323 543 323 552.389 323 560 330.387 560 339.5 560 348.613 552.389 356 543 356 533.611 356 526 348.613 526 339.5Z"/><path fill-rule="evenodd" stroke-miterlimit="8" stroke-width="8" stroke="#000000" d="M532 308.5C532 301.596 537.596 296 544.5 296 551.404 296 557 301.596 557 308.5 557 315.404 551.404 321 544.5 321 537.596 321 532 315.404 532 308.5Z"/><path fill-rule="evenodd" stroke-miterlimit="8" stroke-width="8" stroke="#000000" d="M590 315.5C590 307.492 596.044 301 603.5 301 610.956 301 617 307.492 617 315.5 617 323.508 610.956 330 603.5 330 596.044 330 590 323.508 590 315.5Z"/></g></svg>